<svg xmlns:xlink="http://www.w3.org/1999/xlink" xmlns="http://www.w3.org/2000/svg" fill="none" viewBox="0 0 125 37" width="125"  height="37" ><g clip-path="url(#clip0_85_54)"><path fill="#A6A6A6" d="M120.435 37H4.347A4.347 4.347 0 0 1 0 32.653V4.348A4.342 4.342 0 0 1 4.348 0h116.087c2.405 0 4.44 1.942 4.44 4.348V32.56c0 2.497-2.035 4.44-4.44 4.44z"/><path fill="#000" d="M123.95 32.653a3.513 3.513 0 0 1-3.515 3.514H4.348a3.515 3.515 0 0 1-3.515-3.514V4.348A3.513 3.513 0 0 1 4.348.833h116.087a3.513 3.513 0 0 1 3.515 3.515v28.305z"/><path fill="#fff" d="M42.867 23.506H46.1l-1.157-3.1c-.16-.427-.316-.9-.47-1.418-.14.458-.292.926-.456 1.404l-1.15 3.114zm3.786 1.47H42.32l-1.06 2.898h-1.904l4.24-10.82h1.8l4.34 10.82h-2.002l-1.082-2.897zm8.701.931c.376-.506.564-1.244.564-2.215 0-.9-.156-1.554-.467-1.96a1.49 1.49 0 0 0-1.243-.608c-.359 0-.69.085-.993.254a3.703 3.703 0 0 0-.867.68v4.315c.185.09.399.16.643.213a3.4 3.4 0 0 0 .724.08c.717 0 1.263-.254 1.639-.759zm-4.85-4.119c0-.597-.02-1.254-.06-1.971h1.733c.064.334.11.675.134 1.023.717-.782 1.538-1.172 2.464-1.172a2.88 2.88 0 0 1 1.494.406c.458.272.828.7 1.109 1.285s.422 1.328.422 2.229c0 .94-.16 1.745-.482 2.412-.321.667-.77 1.172-1.348 1.516-.577.343-1.245.515-2.001.515a4.929 4.929 0 0 1-1.62-.276v3.33l-1.846.157v-9.454zm13.265 4.119c.376-.506.564-1.244.564-2.215 0-.9-.156-1.554-.467-1.96a1.49 1.49 0 0 0-1.243-.608c-.359 0-.69.085-.993.254a3.703 3.703 0 0 0-.867.68v4.315a3.393 3.393 0 0 0 1.367.292c.717 0 1.263-.253 1.639-.758zm-4.85-4.119c0-.597-.02-1.254-.06-1.971h1.733c.064.334.11.675.134 1.023.717-.782 1.538-1.172 2.464-1.172a2.88 2.88 0 0 1 1.494.406c.458.272.828.7 1.109 1.285.28.585.422 1.328.422 2.229 0 .94-.161 1.745-.482 2.412-.321.667-.77 1.172-1.348 1.516-.578.343-1.245.515-2.001.515a4.93 4.93 0 0 1-1.62-.276v3.33l-1.845.157v-9.454zm10.684 5.575a4.475 4.475 0 0 1-1.837-1.893c-.428-.822-.642-1.792-.642-2.912 0-1.215.246-2.247.739-3.096a4.758 4.758 0 0 1 2.012-1.912c.85-.425 1.801-.638 2.857-.638.622 0 1.216.069 1.78.205a7.71 7.71 0 0 1 1.58.564l-.47 1.419c-.981-.468-1.917-.702-2.808-.702-.752 0-1.41.16-1.975.482-.565.32-1.005.793-1.318 1.415-.314.622-.47 1.374-.47 2.255 0 .772.12 1.456.361 2.054.242.597.623 1.07 1.143 1.418.52.349 1.176.523 1.968.523.358 0 .717-.03 1.075-.09s.695-.146 1.008-.26v-2.19h-2.5v-1.433h4.292v4.556a9.602 9.602 0 0 1-1.945.664 9.141 9.141 0 0 1-2.027.232c-1.086 0-2.027-.22-2.823-.661zm12.245-.983a2.95 2.95 0 0 0 .94-.686V24.2a11.89 11.89 0 0 0-1.232-.082c-.761 0-1.288.123-1.579.37-.291.246-.437.579-.437.997 0 .398.106.693.318.885.211.191.499.287.862.287.368 0 .744-.092 1.128-.276zm1.105 1.494a7.026 7.026 0 0 1-.127-1.067 3.562 3.562 0 0 1-1.11.862 3.296 3.296 0 0 1-1.54.355 2.9 2.9 0 0 1-1.267-.273 2.11 2.11 0 0 1-.907-.822c-.224-.366-.336-.813-.336-1.341 0-.781.28-1.405.844-1.87.562-.466 1.5-.7 2.815-.7.493 0 .98.035 1.463.105v-.157c0-.712-.151-1.213-.455-1.505-.304-.29-.74-.436-1.307-.436-.393 0-.814.057-1.262.17a6.656 6.656 0 0 0-1.18.412l-.291-1.344c.329-.15.762-.286 1.3-.41a7.538 7.538 0 0 1 1.702-.188c.697 0 1.29.106 1.777.318.488.212.869.575 1.143 1.09.274.516.41 1.209.41 2.08v3.203c0 .334.02.84.06 1.516h-1.732zm3.087-1.934v-9.52l1.837-.15v9.342c0 .343.06.586.176.728.117.141.302.213.556.213.115 0 .277-.028.486-.082l.216 1.321a3.13 3.13 0 0 1-.637.168c-.252.042-.49.064-.713.064-1.28 0-1.92-.695-1.92-2.084zm4.593 0v-9.52l1.837-.15v9.342c0 .343.058.586.175.728.118.141.303.213.557.213.114 0 .276-.028.485-.082l.217 1.321c-.175.07-.388.126-.639.168a4.337 4.337 0 0 1-.713.064c-1.28 0-1.919-.695-1.919-2.084zm9.027-3.031c-.037-.644-.197-1.125-.486-1.447-.29-.32-.676-.481-1.157-.481-.468 0-.858.162-1.169.485-.31.324-.516.804-.61 1.442h3.422zm1.798 1.17h-5.271c.084 1.69.888 2.532 2.412 2.532a5.14 5.14 0 0 0 1.162-.138 6.896 6.896 0 0 0 1.137-.37l.405 1.262c-.903.439-1.914.658-3.04.658-.858 0-1.578-.162-2.165-.486a3.105 3.105 0 0 1-1.327-1.396c-.295-.607-.444-1.34-.444-2.196 0-.89.157-1.657.471-2.3.314-.642.75-1.132 1.31-1.47.56-.34 1.206-.508 1.939-.508.762 0 1.396.178 1.907.534.51.355.888.83 1.134 1.422.247.593.37 1.247.37 1.964v.493zm1.396-2.24c0-.442-.022-1.117-.061-2.023h1.726a22.987 22.987 0 0 1 .14 1.56c.216-.353.425-.65.632-.892.208-.241.449-.438.726-.59a1.93 1.93 0 0 1 .944-.227c.284 0 .526.03.73.09l-.231 1.597a2.03 2.03 0 0 0-.597-.082c-.432 0-.812.11-1.135.332-.323.222-.668.587-1.038 1.094v5.175h-1.836v-6.033zm5.874 9.331a4.446 4.446 0 0 1-.664-.16l.335-1.344c.124.034.282.068.472.1.187.033.367.049.537.049.817 0 1.429-.526 1.836-1.576l.12-.298-2.972-8.125h1.978l1.495 4.54c.242.777.4 1.372.469 1.785.14-.583.303-1.165.493-1.747l1.517-4.578h1.858l-2.963 8.162c-.28.771-.582 1.394-.905 1.867-.323.473-.706.823-1.145 1.053-.442.228-.973.343-1.597.343-.308 0-.597-.023-.865-.07zM39.349 6.753h3.287l-.092.795h-2.232v1.537h2.104v.744h-2.104v1.704h2.351l-.08.801H39.35v-5.58zm5.553 2.733l-1.734-2.733h1.095l1.175 2.009 1.237-2.009h1.064L46.02 9.451l1.862 2.883h-1.11l-1.33-2.197-1.353 2.197h-1.064l1.877-2.848zm6.105-.241c.206-.186.309-.449.309-.788 0-.344-.105-.592-.314-.744-.21-.151-.518-.227-.923-.227h-.525v1.98c.242.04.427.059.555.059.393 0 .693-.093.898-.28zm-2.416-2.492h1.503c.706 0 1.247.145 1.623.432.375.288.562.704.562 1.249 0 .37-.084.693-.252.97a1.662 1.662 0 0 1-.704.635c-.3.148-.646.222-1.037.222-.213 0-.457-.026-.732-.077v2.15h-.963v-5.58zm4.64 0h.964v4.756h2.308l-.08.825H53.23v-5.58zm7.234 4.624c.27-.182.472-.43.606-.748.133-.318.2-.68.2-1.09 0-.4-.06-.758-.177-1.07a1.591 1.591 0 0 0-.567-.75c-.26-.187-.593-.28-1.002-.28-.39 0-.722.094-.994.283a1.734 1.734 0 0 0-.613.76 2.638 2.638 0 0 0-.204 1.05c0 .403.064.764.192 1.082.13.32.325.57.59.756.264.185.592.277.983.277.388 0 .717-.09.986-.27zm-2.497.684a2.333 2.333 0 0 1-.937-.985c-.215-.423-.323-.914-.323-1.474 0-.589.114-1.103.345-1.544.23-.44.561-.78.994-1.021.433-.24.943-.36 1.532-.36.563 0 1.047.116 1.453.348.406.233.716.56.93.98.212.423.32.91.32 1.466 0 .598-.118 1.119-.35 1.56a2.443 2.443 0 0 1-.994 1.022c-.43.239-.936.358-1.517.358-.56 0-1.044-.116-1.453-.35zm6.9-2.667c.233 0 .44-.046.62-.137.18-.091.32-.22.42-.386.1-.165.15-.358.15-.576 0-.28-.089-.485-.266-.615-.177-.13-.436-.194-.775-.194h-.697v1.908h.547zm-1.51-2.64h1.744c.637 0 1.12.127 1.447.381.328.254.492.618.492 1.09 0 .296-.06.557-.178.781a1.723 1.723 0 0 1-.439.55 1.955 1.955 0 0 1-.54.316l1.716 2.462h-1.118l-1.453-2.212h-.71v2.212h-.963v-5.58zm5.005 0h3.287l-.092.794h-2.232v1.537h2.105v.744h-2.105v1.704h2.351l-.08.801h-3.234v-5.58zm6.864 0h.963v5.58h-.963v-5.58zm3.51.806h-1.729l.084-.807h4.344l-.09.806h-1.644v4.775h-.964V7.56zm9.378 3.817c.27-.182.472-.43.605-.748.134-.318.2-.68.2-1.09 0-.4-.058-.758-.176-1.07a1.593 1.593 0 0 0-.567-.75c-.26-.187-.594-.28-1.002-.28-.39 0-.722.094-.995.283a1.731 1.731 0 0 0-.612.76 2.633 2.633 0 0 0-.205 1.05c0 .403.064.764.193 1.082.13.32.325.57.59.756.264.185.592.277.983.277.387 0 .716-.09.986-.27zm-2.497.684a2.332 2.332 0 0 1-.937-.985c-.216-.423-.324-.914-.324-1.474 0-.589.115-1.103.346-1.544.23-.44.56-.78.994-1.021.433-.24.943-.36 1.532-.36.563 0 1.047.116 1.453.348.406.233.715.56.929.98.213.423.32.91.32 1.466 0 .598-.117 1.119-.35 1.56a2.445 2.445 0 0 1-.993 1.022c-.43.239-.937.358-1.517.358-.56 0-1.045-.116-1.453-.35zm5.388-5.308h1.106l2.76 4.325c-.025-.411-.034-.79-.034-1.137V6.754h.893v5.581h-1.07L91.857 7.94a24 24 0 0 1 .042 1.326v3.068h-.894v-5.58z"/><path fill="#C91C2E" fill-rule="evenodd" d="M25.796 6.783H15.549c-4.828 0-6.593 1.766-6.593 6.593v10.248c0 4.827 1.765 6.593 6.593 6.593h10.244c4.827 0 6.596-1.766 6.596-6.593V13.376c0-4.827-1.766-6.593-6.593-6.593z" clip-rule="evenodd"/><path fill="#fff" d="M19.179 20.374h.94l-.472-1.097-.468 1.097zm-.231.552l-.28.638h-.634l1.35-3.062h.548l1.345 3.062h-.652l-.275-.638h-1.402zm10.212.636h.614v-3.06h-.614v3.06zm-2.44-1.315h1.13v-.558h-1.13v-.627h1.64v-.558h-2.254v3.06h2.313v-.558h-1.7v-.76zm-2.438.362l-.696-2.107h-.507l-.696 2.107-.676-2.106h-.662l1.068 3.063h.514l.697-2.012.696 2.012h.52l1.065-3.063h-.645l-.678 2.106zm-7.184-.353c0 .498-.247.764-.697.764-.451 0-.7-.274-.7-.786v-1.73h-.622v1.752c0 .86.48 1.356 1.314 1.356.843 0 1.326-.504 1.326-1.382v-1.728h-.621v1.754zm-3.502-1.754h.62v3.064h-.62v-1.244h-1.404v1.244h-.621v-3.064h.62v1.236h1.406v-1.236zm7.076-3.9c-2.15 0-3.9-1.75-3.9-3.9h.55a3.353 3.353 0 0 0 3.35 3.35 3.353 3.353 0 0 0 3.35-3.35h.55c0 2.15-1.75 3.9-3.9 3.9z"/></g><defs><clipPath id="clip0_85_54"><path fill="#fff" d="M0 0h124.875v37H0z"/></clipPath></defs></svg>